<mxfile host="app.diagrams.net" modified="2021-04-18T14:18:57.944Z" agent="5.0 (Windows NT 10.0; Win64; x64) AppleWebKit/537.36 (KHTML, like Gecko) Chrome/89.0.4389.128 Safari/537.36" etag="X1dl6QUrNF6p_QCcl3wS" version="14.6.1" type="github">
  <diagram id="AYf-nDLTamGiDVXJ3287" name="Page-1">
    <mxGraphModel dx="2272" dy="762" grid="1" gridSize="10" guides="1" tooltips="1" connect="1" arrows="1" fold="1" page="1" pageScale="1" pageWidth="850" pageHeight="1100" math="0" shadow="0">
      <root>
        <mxCell id="0" />
        <mxCell id="1" parent="0" />
        <mxCell id="jKlnHyAw09F4R62Y8YRU-1" value="&lt;&lt;Interface&gt;&gt;&#xa;BillLine" style="swimlane;fontStyle=1;align=center;verticalAlign=top;childLayout=stackLayout;horizontal=1;startSize=40;horizontalStack=0;resizeParent=1;resizeParentMax=0;resizeLast=0;collapsible=1;marginBottom=0;" parent="1" vertex="1">
          <mxGeometry x="480" y="230" width="160" height="152" as="geometry" />
        </mxCell>
        <mxCell id="jKlnHyAw09F4R62Y8YRU-2" value="- id: Long&#xa;&#xa;- price: double" style="text;strokeColor=none;fillColor=none;align=left;verticalAlign=top;spacingLeft=4;spacingRight=4;overflow=hidden;rotatable=0;points=[[0,0.5],[1,0.5]];portConstraint=eastwest;" parent="jKlnHyAw09F4R62Y8YRU-1" vertex="1">
          <mxGeometry y="40" width="160" height="54" as="geometry" />
        </mxCell>
        <mxCell id="jKlnHyAw09F4R62Y8YRU-3" value="" style="line;strokeWidth=1;fillColor=none;align=left;verticalAlign=middle;spacingTop=-1;spacingLeft=3;spacingRight=3;rotatable=0;labelPosition=right;points=[];portConstraint=eastwest;" parent="jKlnHyAw09F4R62Y8YRU-1" vertex="1">
          <mxGeometry y="94" width="160" height="8" as="geometry" />
        </mxCell>
        <mxCell id="jKlnHyAw09F4R62Y8YRU-4" value="+ getter&#xa;+ setter&#xa;" style="text;strokeColor=none;fillColor=none;align=left;verticalAlign=top;spacingLeft=4;spacingRight=4;overflow=hidden;rotatable=0;points=[[0,0.5],[1,0.5]];portConstraint=eastwest;" parent="jKlnHyAw09F4R62Y8YRU-1" vertex="1">
          <mxGeometry y="102" width="160" height="50" as="geometry" />
        </mxCell>
        <mxCell id="eKPGKlKB7dIdJumYgiyQ-1" value="ServiceBillLine" style="swimlane;fontStyle=1;align=center;verticalAlign=top;childLayout=stackLayout;horizontal=1;startSize=26;horizontalStack=0;resizeParent=1;resizeParentMax=0;resizeLast=0;collapsible=1;marginBottom=0;" parent="1" vertex="1">
          <mxGeometry x="380" y="430" width="160" height="100" as="geometry" />
        </mxCell>
        <mxCell id="eKPGKlKB7dIdJumYgiyQ-2" value="- serviceName: String" style="text;strokeColor=none;fillColor=none;align=left;verticalAlign=top;spacingLeft=4;spacingRight=4;overflow=hidden;rotatable=0;points=[[0,0.5],[1,0.5]];portConstraint=eastwest;" parent="eKPGKlKB7dIdJumYgiyQ-1" vertex="1">
          <mxGeometry y="26" width="160" height="26" as="geometry" />
        </mxCell>
        <mxCell id="eKPGKlKB7dIdJumYgiyQ-3" value="" style="line;strokeWidth=1;fillColor=none;align=left;verticalAlign=middle;spacingTop=-1;spacingLeft=3;spacingRight=3;rotatable=0;labelPosition=right;points=[];portConstraint=eastwest;" parent="eKPGKlKB7dIdJumYgiyQ-1" vertex="1">
          <mxGeometry y="52" width="160" height="8" as="geometry" />
        </mxCell>
        <mxCell id="eKPGKlKB7dIdJumYgiyQ-4" value="+ getter:&#xa;+ setter:&#xa;" style="text;strokeColor=none;fillColor=none;align=left;verticalAlign=top;spacingLeft=4;spacingRight=4;overflow=hidden;rotatable=0;points=[[0,0.5],[1,0.5]];portConstraint=eastwest;" parent="eKPGKlKB7dIdJumYgiyQ-1" vertex="1">
          <mxGeometry y="60" width="160" height="40" as="geometry" />
        </mxCell>
        <mxCell id="eKPGKlKB7dIdJumYgiyQ-5" value="MedicalBillLine" style="swimlane;fontStyle=1;align=center;verticalAlign=top;childLayout=stackLayout;horizontal=1;startSize=26;horizontalStack=0;resizeParent=1;resizeParentMax=0;resizeLast=0;collapsible=1;marginBottom=0;" parent="1" vertex="1">
          <mxGeometry x="570" y="430" width="160" height="110" as="geometry" />
        </mxCell>
        <mxCell id="eKPGKlKB7dIdJumYgiyQ-6" value="- drug: Drug" style="text;strokeColor=none;fillColor=none;align=left;verticalAlign=top;spacingLeft=4;spacingRight=4;overflow=hidden;rotatable=0;points=[[0,0.5],[1,0.5]];portConstraint=eastwest;" parent="eKPGKlKB7dIdJumYgiyQ-5" vertex="1">
          <mxGeometry y="26" width="160" height="26" as="geometry" />
        </mxCell>
        <mxCell id="eKPGKlKB7dIdJumYgiyQ-7" value="" style="line;strokeWidth=1;fillColor=none;align=left;verticalAlign=middle;spacingTop=-1;spacingLeft=3;spacingRight=3;rotatable=0;labelPosition=right;points=[];portConstraint=eastwest;" parent="eKPGKlKB7dIdJumYgiyQ-5" vertex="1">
          <mxGeometry y="52" width="160" height="8" as="geometry" />
        </mxCell>
        <mxCell id="eKPGKlKB7dIdJumYgiyQ-8" value="+ getter&#xa;+ setter&#xa;" style="text;strokeColor=none;fillColor=none;align=left;verticalAlign=top;spacingLeft=4;spacingRight=4;overflow=hidden;rotatable=0;points=[[0,0.5],[1,0.5]];portConstraint=eastwest;" parent="eKPGKlKB7dIdJumYgiyQ-5" vertex="1">
          <mxGeometry y="60" width="160" height="50" as="geometry" />
        </mxCell>
        <mxCell id="eKPGKlKB7dIdJumYgiyQ-13" value="Extends" style="endArrow=block;endSize=16;endFill=0;html=1;entryX=0.131;entryY=1;entryDx=0;entryDy=0;entryPerimeter=0;" parent="1" source="eKPGKlKB7dIdJumYgiyQ-1" target="jKlnHyAw09F4R62Y8YRU-4" edge="1">
          <mxGeometry width="160" relative="1" as="geometry">
            <mxPoint x="290" y="428" as="sourcePoint" />
            <mxPoint x="620" y="430" as="targetPoint" />
          </mxGeometry>
        </mxCell>
        <mxCell id="eKPGKlKB7dIdJumYgiyQ-14" value="Extends" style="endArrow=block;endSize=16;endFill=0;html=1;exitX=0.463;exitY=-0.023;exitDx=0;exitDy=0;exitPerimeter=0;entryX=0.85;entryY=1.04;entryDx=0;entryDy=0;entryPerimeter=0;" parent="1" source="eKPGKlKB7dIdJumYgiyQ-5" target="jKlnHyAw09F4R62Y8YRU-4" edge="1">
          <mxGeometry width="160" relative="1" as="geometry">
            <mxPoint x="570" y="410" as="sourcePoint" />
            <mxPoint x="730" y="410" as="targetPoint" />
          </mxGeometry>
        </mxCell>
        <mxCell id="eKPGKlKB7dIdJumYgiyQ-17" value="Bill" style="swimlane;fontStyle=1;align=center;verticalAlign=top;childLayout=stackLayout;horizontal=1;startSize=26;horizontalStack=0;resizeParent=1;resizeParentMax=0;resizeLast=0;collapsible=1;marginBottom=0;" parent="1" vertex="1">
          <mxGeometry x="170" y="230" width="160" height="230" as="geometry" />
        </mxCell>
        <mxCell id="eKPGKlKB7dIdJumYgiyQ-18" value="- id: Long&#xa;&#xa;- patient: Patient&#xa;&#xa;- billLine: Set(BillLine)&#xa;&#xa;- totalPrice: double&#xa;&#xa;- createDate: LocalDate" style="text;strokeColor=none;fillColor=none;align=left;verticalAlign=top;spacingLeft=4;spacingRight=4;overflow=hidden;rotatable=0;points=[[0,0.5],[1,0.5]];portConstraint=eastwest;" parent="eKPGKlKB7dIdJumYgiyQ-17" vertex="1">
          <mxGeometry y="26" width="160" height="144" as="geometry" />
        </mxCell>
        <mxCell id="eKPGKlKB7dIdJumYgiyQ-19" value="" style="line;strokeWidth=1;fillColor=none;align=left;verticalAlign=middle;spacingTop=-1;spacingLeft=3;spacingRight=3;rotatable=0;labelPosition=right;points=[];portConstraint=eastwest;" parent="eKPGKlKB7dIdJumYgiyQ-17" vertex="1">
          <mxGeometry y="170" width="160" height="8" as="geometry" />
        </mxCell>
        <mxCell id="eKPGKlKB7dIdJumYgiyQ-20" value="+ getter&#xa;+ setter&#xa;" style="text;strokeColor=none;fillColor=none;align=left;verticalAlign=top;spacingLeft=4;spacingRight=4;overflow=hidden;rotatable=0;points=[[0,0.5],[1,0.5]];portConstraint=eastwest;" parent="eKPGKlKB7dIdJumYgiyQ-17" vertex="1">
          <mxGeometry y="178" width="160" height="52" as="geometry" />
        </mxCell>
        <mxCell id="eKPGKlKB7dIdJumYgiyQ-21" value="" style="endArrow=none;html=1;edgeStyle=orthogonalEdgeStyle;exitX=1;exitY=0.113;exitDx=0;exitDy=0;exitPerimeter=0;entryX=0.013;entryY=0.153;entryDx=0;entryDy=0;entryPerimeter=0;" parent="1" source="eKPGKlKB7dIdJumYgiyQ-17" target="jKlnHyAw09F4R62Y8YRU-1" edge="1">
          <mxGeometry relative="1" as="geometry">
            <mxPoint x="270" y="90" as="sourcePoint" />
            <mxPoint x="430" y="90" as="targetPoint" />
            <Array as="points">
              <mxPoint x="330" y="248" />
            </Array>
          </mxGeometry>
        </mxCell>
        <mxCell id="eKPGKlKB7dIdJumYgiyQ-22" value="1" style="edgeLabel;resizable=0;html=1;align=left;verticalAlign=bottom;" parent="eKPGKlKB7dIdJumYgiyQ-21" connectable="0" vertex="1">
          <mxGeometry x="-1" relative="1" as="geometry" />
        </mxCell>
        <mxCell id="eKPGKlKB7dIdJumYgiyQ-23" value="1..*" style="edgeLabel;resizable=0;html=1;align=right;verticalAlign=bottom;" parent="eKPGKlKB7dIdJumYgiyQ-21" connectable="0" vertex="1">
          <mxGeometry x="1" relative="1" as="geometry">
            <mxPoint x="-2" as="offset" />
          </mxGeometry>
        </mxCell>
        <mxCell id="eKPGKlKB7dIdJumYgiyQ-28" value="BillController" style="swimlane;fontStyle=1;align=center;verticalAlign=top;childLayout=stackLayout;horizontal=1;startSize=26;horizontalStack=0;resizeParent=1;resizeParentMax=0;resizeLast=0;collapsible=1;marginBottom=0;" parent="1" vertex="1">
          <mxGeometry x="-60" y="140" width="190" height="190" as="geometry" />
        </mxCell>
        <mxCell id="eKPGKlKB7dIdJumYgiyQ-29" value="- billService: BillService" style="text;strokeColor=none;fillColor=none;align=left;verticalAlign=top;spacingLeft=4;spacingRight=4;overflow=hidden;rotatable=0;points=[[0,0.5],[1,0.5]];portConstraint=eastwest;" parent="eKPGKlKB7dIdJumYgiyQ-28" vertex="1">
          <mxGeometry y="26" width="190" height="26" as="geometry" />
        </mxCell>
        <mxCell id="eKPGKlKB7dIdJumYgiyQ-30" value="" style="line;strokeWidth=1;fillColor=none;align=left;verticalAlign=middle;spacingTop=-1;spacingLeft=3;spacingRight=3;rotatable=0;labelPosition=right;points=[];portConstraint=eastwest;" parent="eKPGKlKB7dIdJumYgiyQ-28" vertex="1">
          <mxGeometry y="52" width="190" height="8" as="geometry" />
        </mxCell>
        <mxCell id="eKPGKlKB7dIdJumYgiyQ-31" value="+ getBill(ID: Long): Bill&#xa;&#xa;+ updateBill(ID: Long,bill: Bill): void&#xa;&#xa;+ addBill(bill: Bill): void&#xa;&#xa;+ deleteBill(ID: Long): void&#xa;" style="text;strokeColor=none;fillColor=none;align=left;verticalAlign=top;spacingLeft=4;spacingRight=4;overflow=hidden;rotatable=0;points=[[0,0.5],[1,0.5]];portConstraint=eastwest;" parent="eKPGKlKB7dIdJumYgiyQ-28" vertex="1">
          <mxGeometry y="60" width="190" height="130" as="geometry" />
        </mxCell>
        <mxCell id="eKPGKlKB7dIdJumYgiyQ-35" value="BillService" style="swimlane;fontStyle=1;align=center;verticalAlign=top;childLayout=stackLayout;horizontal=1;startSize=26;horizontalStack=0;resizeParent=1;resizeParentMax=0;resizeLast=0;collapsible=1;marginBottom=0;" parent="1" vertex="1">
          <mxGeometry x="-60" y="360" width="190" height="190" as="geometry" />
        </mxCell>
        <mxCell id="eKPGKlKB7dIdJumYgiyQ-36" value="- billRepository: BillRepository" style="text;strokeColor=none;fillColor=none;align=left;verticalAlign=top;spacingLeft=4;spacingRight=4;overflow=hidden;rotatable=0;points=[[0,0.5],[1,0.5]];portConstraint=eastwest;" parent="eKPGKlKB7dIdJumYgiyQ-35" vertex="1">
          <mxGeometry y="26" width="190" height="26" as="geometry" />
        </mxCell>
        <mxCell id="eKPGKlKB7dIdJumYgiyQ-37" value="" style="line;strokeWidth=1;fillColor=none;align=left;verticalAlign=middle;spacingTop=-1;spacingLeft=3;spacingRight=3;rotatable=0;labelPosition=right;points=[];portConstraint=eastwest;" parent="eKPGKlKB7dIdJumYgiyQ-35" vertex="1">
          <mxGeometry y="52" width="190" height="8" as="geometry" />
        </mxCell>
        <mxCell id="eKPGKlKB7dIdJumYgiyQ-39" value="+ getBill(ID: Long): Bill&#xa;&#xa;+ updateBill(ID: Long,bill: Bill): void&#xa;&#xa;+ addBill(bill: Bill): void&#xa;&#xa;+ deleteBill(ID: Long): void&#xa;" style="text;strokeColor=none;fillColor=none;align=left;verticalAlign=top;spacingLeft=4;spacingRight=4;overflow=hidden;rotatable=0;points=[[0,0.5],[1,0.5]];portConstraint=eastwest;" parent="eKPGKlKB7dIdJumYgiyQ-35" vertex="1">
          <mxGeometry y="60" width="190" height="130" as="geometry" />
        </mxCell>
        <mxCell id="eKPGKlKB7dIdJumYgiyQ-44" value="&lt;&lt;Interface&gt;&gt;&#xa;BillRepository" style="swimlane;fontStyle=1;align=center;verticalAlign=top;childLayout=stackLayout;horizontal=1;startSize=48;horizontalStack=0;resizeParent=1;resizeParentMax=0;resizeLast=0;collapsible=1;marginBottom=0;" parent="1" vertex="1">
          <mxGeometry x="170" y="140" width="160" height="56" as="geometry" />
        </mxCell>
        <mxCell id="eKPGKlKB7dIdJumYgiyQ-46" value="" style="line;strokeWidth=1;fillColor=none;align=left;verticalAlign=middle;spacingTop=-1;spacingLeft=3;spacingRight=3;rotatable=0;labelPosition=right;points=[];portConstraint=eastwest;" parent="eKPGKlKB7dIdJumYgiyQ-44" vertex="1">
          <mxGeometry y="48" width="160" height="8" as="geometry" />
        </mxCell>
        <mxCell id="eKPGKlKB7dIdJumYgiyQ-48" value="BillLineController" style="swimlane;fontStyle=1;align=center;verticalAlign=top;childLayout=stackLayout;horizontal=1;startSize=26;horizontalStack=0;resizeParent=1;resizeParentMax=0;resizeLast=0;collapsible=1;marginBottom=0;" parent="1" vertex="1">
          <mxGeometry x="900" y="130" width="270" height="190" as="geometry" />
        </mxCell>
        <mxCell id="eKPGKlKB7dIdJumYgiyQ-49" value="- billService: BillService" style="text;strokeColor=none;fillColor=none;align=left;verticalAlign=top;spacingLeft=4;spacingRight=4;overflow=hidden;rotatable=0;points=[[0,0.5],[1,0.5]];portConstraint=eastwest;" parent="eKPGKlKB7dIdJumYgiyQ-48" vertex="1">
          <mxGeometry y="26" width="270" height="26" as="geometry" />
        </mxCell>
        <mxCell id="eKPGKlKB7dIdJumYgiyQ-50" value="" style="line;strokeWidth=1;fillColor=none;align=left;verticalAlign=middle;spacingTop=-1;spacingLeft=3;spacingRight=3;rotatable=0;labelPosition=right;points=[];portConstraint=eastwest;" parent="eKPGKlKB7dIdJumYgiyQ-48" vertex="1">
          <mxGeometry y="52" width="270" height="8" as="geometry" />
        </mxCell>
        <mxCell id="eKPGKlKB7dIdJumYgiyQ-51" value="+ getBillLine(ID: Long): BillLine&#xa;&#xa;+ updateBillLine(ID: Long, billLine: BillLine): void&#xa;&#xa;+ addBillLine(billLine: BillLine): void&#xa;&#xa;+ deleteBillLine(ID: Long): void&#xa;" style="text;strokeColor=none;fillColor=none;align=left;verticalAlign=top;spacingLeft=4;spacingRight=4;overflow=hidden;rotatable=0;points=[[0,0.5],[1,0.5]];portConstraint=eastwest;" parent="eKPGKlKB7dIdJumYgiyQ-48" vertex="1">
          <mxGeometry y="60" width="270" height="130" as="geometry" />
        </mxCell>
        <mxCell id="eKPGKlKB7dIdJumYgiyQ-52" value="BillService" style="swimlane;fontStyle=1;align=center;verticalAlign=top;childLayout=stackLayout;horizontal=1;startSize=26;horizontalStack=0;resizeParent=1;resizeParentMax=0;resizeLast=0;collapsible=1;marginBottom=0;" parent="1" vertex="1">
          <mxGeometry x="900" y="350" width="270" height="190" as="geometry" />
        </mxCell>
        <mxCell id="eKPGKlKB7dIdJumYgiyQ-53" value="- billRepository: BillRepository" style="text;strokeColor=none;fillColor=none;align=left;verticalAlign=top;spacingLeft=4;spacingRight=4;overflow=hidden;rotatable=0;points=[[0,0.5],[1,0.5]];portConstraint=eastwest;" parent="eKPGKlKB7dIdJumYgiyQ-52" vertex="1">
          <mxGeometry y="26" width="270" height="26" as="geometry" />
        </mxCell>
        <mxCell id="eKPGKlKB7dIdJumYgiyQ-54" value="" style="line;strokeWidth=1;fillColor=none;align=left;verticalAlign=middle;spacingTop=-1;spacingLeft=3;spacingRight=3;rotatable=0;labelPosition=right;points=[];portConstraint=eastwest;" parent="eKPGKlKB7dIdJumYgiyQ-52" vertex="1">
          <mxGeometry y="52" width="270" height="8" as="geometry" />
        </mxCell>
        <mxCell id="eKPGKlKB7dIdJumYgiyQ-58" value="+ getBillLine(ID: Long): BillLine&#xa;&#xa;+ updateBillLine(ID: Long, billLine: BillLine): void&#xa;&#xa;+ addBillLine(billLine: BillLine): void&#xa;&#xa;+ deleteBillLine(ID: Long): void&#xa;" style="text;strokeColor=none;fillColor=none;align=left;verticalAlign=top;spacingLeft=4;spacingRight=4;overflow=hidden;rotatable=0;points=[[0,0.5],[1,0.5]];portConstraint=eastwest;" parent="eKPGKlKB7dIdJumYgiyQ-52" vertex="1">
          <mxGeometry y="60" width="270" height="130" as="geometry" />
        </mxCell>
        <mxCell id="eKPGKlKB7dIdJumYgiyQ-56" value="&lt;&lt;Interface&gt;&gt;&#xa;BillLineRepository" style="swimlane;fontStyle=1;align=center;verticalAlign=top;childLayout=stackLayout;horizontal=1;startSize=48;horizontalStack=0;resizeParent=1;resizeParentMax=0;resizeLast=0;collapsible=1;marginBottom=0;" parent="1" vertex="1">
          <mxGeometry x="690" y="230" width="160" height="56" as="geometry" />
        </mxCell>
        <mxCell id="eKPGKlKB7dIdJumYgiyQ-57" value="" style="line;strokeWidth=1;fillColor=none;align=left;verticalAlign=middle;spacingTop=-1;spacingLeft=3;spacingRight=3;rotatable=0;labelPosition=right;points=[];portConstraint=eastwest;" parent="eKPGKlKB7dIdJumYgiyQ-56" vertex="1">
          <mxGeometry y="48" width="160" height="8" as="geometry" />
        </mxCell>
      </root>
    </mxGraphModel>
  </diagram>
</mxfile>
